<svg width="24" height="25" viewBox="0 0 24 25" fill="none" xmlns="http://www.w3.org/2000/svg">
<g id="apple-fill">
<path id="Vector" d="M11.6734 7.7221C10.7974 7.7221 9.44138 6.7261 8.01338 6.7621C6.12938 6.7861 4.40138 7.8541 3.42938 9.5461C1.47338 12.9421 2.92538 17.9581 4.83338 20.7181C5.76938 22.0621 6.87338 23.5741 8.33738 23.5261C9.74138 23.4661 10.2694 22.6141 11.9734 22.6141C13.6654 22.6141 14.1454 23.5261 15.6334 23.4901C17.1454 23.4661 18.1054 22.1221 19.0294 20.7661C20.0974 19.2061 20.5414 17.6941 20.5654 17.6101C20.5294 17.5981 17.6254 16.4821 17.5894 13.1221C17.5654 10.3141 19.8814 8.9701 19.9894 8.9101C18.6694 6.9781 16.6414 6.7621 15.9334 6.7141C14.0854 6.5701 12.5374 7.7221 11.6734 7.7221ZM14.7934 4.8901C15.5734 3.9541 16.0894 2.6461 15.9454 1.3501C14.8294 1.3981 13.4854 2.0941 12.6814 3.0301C11.9614 3.8581 11.3374 5.1901 11.5054 6.4621C12.7414 6.5581 14.0134 5.8261 14.7934 4.8901Z" fill="white"/>
</g>
</svg>
