<svg width="194" height="84" viewBox="0 0 194 84" fill="none" xmlns="http://www.w3.org/2000/svg">
<rect x="1" y="1" width="191.885" height="81.1944" rx="3.23023" fill="white"/>
<path d="M55.5377 24.0628C55.4896 23.6568 55.2947 23.3417 54.9528 23.1174C54.611 22.893 54.1917 22.7809 53.695 22.7809C53.3318 22.7809 53.014 22.8396 52.7416 22.9571C52.4718 23.0746 52.2609 23.2362 52.1086 23.4419C51.9591 23.6475 51.8843 23.8812 51.8843 24.1429C51.8843 24.3619 51.9364 24.5501 52.0405 24.7077C52.1474 24.8626 52.2836 24.9921 52.4491 25.0963C52.6147 25.1978 52.7883 25.2819 52.9699 25.3487C53.1515 25.4128 53.3184 25.4648 53.4706 25.5049L54.3039 25.7292C54.5175 25.7853 54.7552 25.8627 55.0169 25.9616C55.2813 26.0604 55.5337 26.1952 55.774 26.3662C56.0171 26.5344 56.2173 26.7507 56.3749 27.0151C56.5325 27.2795 56.6113 27.604 56.6113 27.9885C56.6113 28.4319 56.4951 28.8325 56.2628 29.1903C56.0331 29.5482 55.6966 29.8326 55.2533 30.0436C54.8126 30.2545 54.2772 30.36 53.6469 30.36C53.0594 30.36 52.5506 30.2652 52.1207 30.0756C51.6934 29.886 51.3569 29.6216 51.1112 29.2824C50.8681 28.9433 50.7306 28.5494 50.6986 28.1007H51.7241C51.7508 28.4105 51.8549 28.6669 52.0365 28.8698C52.2208 29.0701 52.4531 29.2197 52.7336 29.3185C53.0166 29.4146 53.3211 29.4627 53.6469 29.4627C54.0261 29.4627 54.3666 29.4013 54.6684 29.2784C54.9702 29.1529 55.2092 28.9793 55.3855 28.7577C55.5617 28.5333 55.6498 28.2716 55.6498 27.9725C55.6498 27.7001 55.5737 27.4785 55.4215 27.3075C55.2693 27.1366 55.069 26.9978 54.8206 26.8909C54.5723 26.7841 54.3039 26.6906 54.0154 26.6105L53.006 26.3221C52.365 26.1378 51.8576 25.8748 51.4837 25.5329C51.1098 25.1911 50.9229 24.7438 50.9229 24.191C50.9229 23.7316 51.0471 23.331 51.2954 22.9892C51.5465 22.6447 51.883 22.3776 52.3049 22.188C52.7295 21.9957 53.2036 21.8996 53.727 21.8996C54.2558 21.8996 54.7258 21.9944 55.1371 22.184C55.5484 22.3709 55.8742 22.6273 56.1145 22.9531C56.3576 23.2789 56.4857 23.6488 56.4991 24.0628H55.5377ZM60.6963 30.344C60.1034 30.344 59.592 30.2131 59.162 29.9514C58.7347 29.687 58.4049 29.3185 58.1726 28.8458C57.9429 28.3704 57.8281 27.8176 57.8281 27.1874C57.8281 26.5571 57.9429 26.0016 58.1726 25.5209C58.4049 25.0375 58.728 24.661 59.142 24.3912C59.5586 24.1188 60.0446 23.9826 60.6001 23.9826C60.9206 23.9826 61.2371 24.0361 61.5495 24.1429C61.862 24.2497 62.1464 24.4233 62.4028 24.6636C62.6592 24.9013 62.8635 25.2165 63.0157 25.609C63.1679 26.0016 63.244 26.485 63.244 27.0592V27.4598H58.501V26.6426H62.2826C62.2826 26.2954 62.2132 25.9856 62.0743 25.7132C61.9381 25.4408 61.7431 25.2258 61.4894 25.0682C61.2384 24.9107 60.942 24.8319 60.6001 24.8319C60.2236 24.8319 59.8978 24.9254 59.6227 25.1123C59.3503 25.2966 59.1407 25.5369 58.9938 25.8334C58.8469 26.1298 58.7734 26.4476 58.7734 26.7868V27.3316C58.7734 27.7963 58.8536 28.1902 59.0138 28.5133C59.1767 28.8338 59.4024 29.0781 59.6908 29.2464C59.9792 29.412 60.3144 29.4948 60.6963 29.4948C60.9446 29.4948 61.169 29.46 61.3693 29.3906C61.5722 29.3185 61.7472 29.2117 61.894 29.0701C62.0409 28.9259 62.1544 28.747 62.2345 28.5333L63.1479 28.7897C63.0517 29.0995 62.8902 29.3719 62.6632 29.6069C62.4362 29.8393 62.1558 30.0209 61.8219 30.1517C61.4881 30.2799 61.1129 30.344 60.6963 30.344ZM65.6275 26.5144V30.2158H64.6821V24.0628H65.5955V25.0242H65.6756C65.8198 24.7117 66.0388 24.4607 66.3326 24.2711C66.6263 24.0788 67.0056 23.9826 67.4702 23.9826C67.8869 23.9826 68.2514 24.0681 68.5639 24.239C68.8763 24.4073 69.1193 24.6636 69.2929 25.0082C69.4665 25.35 69.5533 25.7826 69.5533 26.3061V30.2158H68.6079V26.3702C68.6079 25.8868 68.4824 25.5102 68.2314 25.2405C67.9803 24.9681 67.6358 24.8319 67.1978 24.8319C66.8961 24.8319 66.6263 24.8973 66.3887 25.0282C66.1536 25.159 65.968 25.35 65.8318 25.601C65.6956 25.8521 65.6275 26.1565 65.6275 26.5144ZM73.9568 24.0628V24.8639H70.7681V24.0628H73.9568ZM71.6975 22.5886H72.6429V28.4532C72.6429 28.7203 72.6816 28.9206 72.759 29.0541C72.8391 29.185 72.9406 29.2731 73.0635 29.3185C73.189 29.3612 73.3212 29.3826 73.4601 29.3826C73.5642 29.3826 73.6497 29.3773 73.7164 29.3666C73.7832 29.3532 73.8366 29.3425 73.8767 29.3345L74.069 30.1838C74.0049 30.2078 73.9154 30.2318 73.8006 30.2559C73.6857 30.2826 73.5402 30.2959 73.3639 30.2959C73.0969 30.2959 72.8351 30.2385 72.5788 30.1237C72.3251 30.0088 72.1141 29.8339 71.9458 29.5989C71.7803 29.3639 71.6975 29.0675 71.6975 28.7096V22.5886ZM78.6797 30.2158V22.0117H83.631V22.893H79.6732V25.6651H83.3747V26.5464H79.6732V29.3345H83.6951V30.2158H78.6797ZM85.2935 30.2158V24.0628H86.2068V25.0242H86.2869C86.4151 24.6957 86.6221 24.4407 86.9079 24.2591C87.1936 24.0748 87.5368 23.9826 87.9374 23.9826C88.3433 23.9826 88.6811 24.0748 88.9509 24.2591C89.2233 24.4407 89.4356 24.6957 89.5878 25.0242H89.6519C89.8095 24.7064 90.0458 24.454 90.3609 24.2671C90.6761 24.0775 91.054 23.9826 91.4946 23.9826C92.0447 23.9826 92.4947 24.1549 92.8446 24.4994C93.1944 24.8412 93.3694 25.374 93.3694 26.0978V30.2158H92.424V26.0978C92.424 25.6438 92.2998 25.3193 92.0514 25.1243C91.8031 24.9294 91.5106 24.8319 91.1741 24.8319C90.7415 24.8319 90.4063 24.9628 90.1687 25.2245C89.931 25.4835 89.8121 25.812 89.8121 26.2099V30.2158H88.8507V26.0016C88.8507 25.6518 88.7372 25.37 88.5102 25.1564C88.2832 24.9401 87.9908 24.8319 87.6329 24.8319C87.3872 24.8319 87.1576 24.8973 86.9439 25.0282C86.7329 25.159 86.562 25.3406 86.4312 25.573C86.303 25.8027 86.2389 26.0684 86.2389 26.3702V30.2158H85.2935ZM96.9086 30.36C96.5187 30.36 96.1648 30.2866 95.847 30.1397C95.5292 29.9902 95.2768 29.7752 95.0899 29.4948C94.903 29.2117 94.8095 28.8698 94.8095 28.4692C94.8095 28.1167 94.8789 27.831 95.0178 27.612C95.1567 27.3903 95.3423 27.2167 95.5746 27.0912C95.8069 26.9657 96.0633 26.8722 96.3437 26.8108C96.6268 26.7467 96.9112 26.696 97.197 26.6586C97.5709 26.6105 97.874 26.5745 98.1063 26.5504C98.3413 26.5237 98.5123 26.4797 98.6191 26.4182C98.7286 26.3568 98.7833 26.25 98.7833 26.0978V26.0657C98.7833 25.6705 98.6752 25.3633 98.4589 25.1444C98.2452 24.9254 97.9207 24.8159 97.4854 24.8159C97.0341 24.8159 96.6802 24.9147 96.4239 25.1123C96.1675 25.3099 95.9872 25.5209 95.8831 25.7452L94.9857 25.4248C95.146 25.0509 95.3596 24.7598 95.6267 24.5515C95.8964 24.3405 96.1902 24.1936 96.508 24.1108C96.8285 24.0254 97.1436 23.9826 97.4534 23.9826C97.651 23.9826 97.878 24.0067 98.1344 24.0548C98.3934 24.1002 98.6431 24.195 98.8835 24.3392C99.1265 24.4834 99.3281 24.701 99.4884 24.9921C99.6486 25.2832 99.7287 25.6731 99.7287 26.1619V30.2158H98.7833V29.3826H98.7353C98.6712 29.5161 98.5643 29.659 98.4148 29.8112C98.2652 29.9634 98.0663 30.093 97.8179 30.1998C97.5695 30.3066 97.2664 30.36 96.9086 30.36ZM97.0528 29.5108C97.4267 29.5108 97.7418 29.4373 97.9982 29.2905C98.2572 29.1436 98.4522 28.954 98.583 28.7216C98.7166 28.4893 98.7833 28.2449 98.7833 27.9885V27.1233C98.7433 27.1713 98.6551 27.2154 98.5189 27.2555C98.3854 27.2929 98.2305 27.3262 98.0543 27.3556C97.8807 27.3823 97.7111 27.4064 97.5455 27.4277C97.3826 27.4464 97.2504 27.4624 97.1489 27.4758C96.9032 27.5078 96.6736 27.5599 96.4599 27.632C96.2489 27.7015 96.078 27.8069 95.9472 27.9485C95.819 28.0874 95.7549 28.277 95.7549 28.5173C95.7549 28.8458 95.8764 29.0942 96.1194 29.2624C96.3651 29.428 96.6762 29.5108 97.0528 29.5108ZM101.454 30.2158V24.0628H102.4V30.2158H101.454ZM101.935 23.0373C101.751 23.0373 101.592 22.9745 101.458 22.849C101.327 22.7235 101.262 22.5726 101.262 22.3963C101.262 22.2201 101.327 22.0692 101.458 21.9436C101.592 21.8181 101.751 21.7554 101.935 21.7554C102.119 21.7554 102.277 21.8181 102.408 21.9436C102.541 22.0692 102.608 22.2201 102.608 22.3963C102.608 22.5726 102.541 22.7235 102.408 22.849C102.277 22.9745 102.119 23.0373 101.935 23.0373ZM105.077 22.0117V30.2158H104.131V22.0117H105.077Z" fill="#2D2D2D"/>
<path d="M18.9059 65.5209C18.0406 65.5209 17.2715 65.3727 16.5985 65.0763C15.9295 64.7798 15.4007 64.3672 15.0121 63.8384C14.6236 63.3097 14.4173 62.6988 14.3932 62.0057H16.6525C16.6726 62.3382 16.7827 62.6287 16.983 62.877C17.1833 63.1214 17.4497 63.3117 17.7822 63.4479C18.1147 63.5841 18.4872 63.6522 18.8999 63.6522C19.3405 63.6522 19.7311 63.576 20.0716 63.4238C20.4121 63.2676 20.6785 63.0513 20.8708 62.7749C21.063 62.4985 21.1572 62.18 21.1532 61.8195C21.1572 61.4469 21.061 61.1184 20.8647 60.834C20.6685 60.5496 20.384 60.3273 20.0115 60.167C19.6429 60.0068 19.1983 59.9267 18.6775 59.9267H17.5899V58.2081H18.6775C19.1062 58.2081 19.4807 58.134 19.8012 57.9858C20.1257 57.8376 20.38 57.6293 20.5643 57.3609C20.7486 57.0885 20.8387 56.774 20.8347 56.4175C20.8387 56.069 20.7606 55.7666 20.6004 55.5102C20.4441 55.2498 20.2218 55.0475 19.9334 54.9033C19.649 54.7591 19.3145 54.687 18.9299 54.687C18.5533 54.687 18.2048 54.7551 17.8844 54.8913C17.5639 55.0275 17.3055 55.2218 17.1092 55.4741C16.9129 55.7225 16.8088 56.0189 16.7968 56.3634H14.6516C14.6676 55.6744 14.8659 55.0695 15.2465 54.5488C15.631 54.024 16.1438 53.6154 16.7847 53.323C17.4257 53.0265 18.1447 52.8783 18.9419 52.8783C19.7631 52.8783 20.4762 53.0325 21.0811 53.341C21.69 53.6454 22.1607 54.056 22.4931 54.5728C22.8256 55.0896 22.9919 55.6604 22.9919 56.2853C22.9959 56.9783 22.7916 57.5592 22.379 58.0279C21.9704 58.4966 21.4336 58.803 20.7686 58.9472V59.0434C21.6339 59.1636 22.2969 59.484 22.7575 60.0048C23.2222 60.5216 23.4526 61.1645 23.4485 61.9336C23.4485 62.6226 23.2523 63.2396 22.8597 63.7844C22.4711 64.3251 21.9343 64.7498 21.2493 65.0582C20.5683 65.3667 19.7872 65.5209 18.9059 65.5209ZM25.5111 65.3527V63.7423L29.7834 59.5541C30.192 59.1415 30.5325 58.775 30.8049 58.4545C31.0773 58.134 31.2816 57.8236 31.4178 57.5231C31.554 57.2227 31.6221 56.9022 31.6221 56.5617C31.6221 56.1732 31.5339 55.8407 31.3577 55.5643C31.1814 55.2838 30.9391 55.0675 30.6306 54.9153C30.3222 54.7631 29.9716 54.687 29.5791 54.687C29.1745 54.687 28.82 54.7711 28.5155 54.9393C28.2111 55.1036 27.9747 55.3379 27.8065 55.6424C27.6422 55.9468 27.5601 56.3094 27.5601 56.73H25.439C25.439 55.9488 25.6172 55.2698 25.9738 54.693C26.3303 54.1161 26.821 53.6695 27.4459 53.353C28.0749 53.0365 28.7959 52.8783 29.6091 52.8783C30.4343 52.8783 31.1594 53.0325 31.7843 53.341C32.4092 53.6494 32.8939 54.0721 33.2385 54.6088C33.587 55.1456 33.7612 55.7585 33.7612 56.4476C33.7612 56.9082 33.6731 57.3609 33.4968 57.8056C33.3206 58.2502 33.0101 58.7429 32.5655 59.2837C32.1248 59.8245 31.5059 60.4795 30.7087 61.2486L28.5876 63.4058V63.4899H33.9475V65.3527H25.5111ZM38.5983 63.6702L38.5202 64.3312C38.4641 64.8359 38.364 65.3487 38.2198 65.8694C38.0796 66.3942 37.9314 66.8769 37.7751 67.3176C37.6189 67.7582 37.4927 68.1047 37.3966 68.3571H35.9304C35.9865 68.1127 36.0626 67.7802 36.1588 67.3596C36.2589 66.939 36.355 66.4663 36.4472 65.9415C36.5393 65.4168 36.6014 64.884 36.6335 64.3432L36.6755 63.6702H38.5983ZM44.9227 65.5209C44.0293 65.5209 43.2362 65.3707 42.5432 65.0702C41.8541 64.7698 41.3133 64.3592 40.9208 63.8384C40.5322 63.3137 40.3399 62.7188 40.3439 62.0538C40.3399 61.537 40.4521 61.0623 40.6804 60.6297C40.9087 60.1971 41.2172 59.8365 41.6058 59.5481C41.9983 59.2557 42.435 59.0694 42.9157 58.9893V58.9052C42.2828 58.765 41.77 58.4425 41.3774 57.9377C40.9889 57.429 40.7966 56.8421 40.8006 56.1772C40.7966 55.5442 40.9728 54.9794 41.3294 54.4827C41.6859 53.9859 42.1746 53.5954 42.7955 53.3109C43.4164 53.0225 44.1255 52.8783 44.9227 52.8783C45.7118 52.8783 46.4148 53.0225 47.0318 53.3109C47.6527 53.5954 48.1414 53.9859 48.4979 54.4827C48.8584 54.9794 49.0387 55.5442 49.0387 56.1772C49.0387 56.8421 48.8404 57.429 48.4438 57.9377C48.0513 58.4425 47.5445 58.765 46.9236 58.9052V58.9893C47.4043 59.0694 47.8369 59.2557 48.2215 59.5481C48.6101 59.8365 48.9185 60.1971 49.1469 60.6297C49.3792 61.0623 49.4954 61.537 49.4954 62.0538C49.4954 62.7188 49.2991 63.3137 48.9065 63.8384C48.5139 64.3592 47.9731 64.7698 47.2841 65.0702C46.5991 65.3707 45.812 65.5209 44.9227 65.5209ZM44.9227 63.8024C45.3833 63.8024 45.7839 63.7243 46.1244 63.568C46.4649 63.4078 46.7293 63.1835 46.9176 62.895C47.1059 62.6066 47.202 62.2741 47.206 61.8976C47.202 61.505 47.0999 61.1585 46.8996 60.858C46.7033 60.5536 46.4329 60.3152 46.0884 60.143C45.7479 59.9707 45.3593 59.8846 44.9227 59.8846C44.482 59.8846 44.0894 59.9707 43.7449 60.143C43.4004 60.3152 43.128 60.5536 42.9277 60.858C42.7314 61.1585 42.6353 61.505 42.6393 61.8976C42.6353 62.2741 42.7274 62.6066 42.9157 62.895C43.104 63.1795 43.3684 63.4018 43.7089 63.562C44.0534 63.7223 44.458 63.8024 44.9227 63.8024ZM44.9227 58.1961C45.2992 58.1961 45.6317 58.12 45.9201 57.9678C46.2126 57.8156 46.4429 57.6033 46.6111 57.3309C46.7794 57.0585 46.8655 56.744 46.8695 56.3875C46.8655 56.0349 46.7814 55.7265 46.6171 55.4621C46.4529 55.1937 46.2246 54.9874 45.9321 54.8432C45.6397 54.695 45.3032 54.6209 44.9227 54.6209C44.5341 54.6209 44.1916 54.695 43.8951 54.8432C43.6027 54.9874 43.3744 55.1937 43.2101 55.4621C43.0499 55.7265 42.9718 56.0349 42.9758 56.3875C42.9718 56.744 43.0519 57.0585 43.2161 57.3309C43.3844 57.5992 43.6147 57.8116 43.9072 57.9678C44.2036 58.12 44.5421 58.1961 44.9227 58.1961ZM55.8873 65.5209C55.022 65.5209 54.2529 65.3727 53.5799 65.0763C52.9109 64.7798 52.3821 64.3672 51.9936 63.8384C51.605 63.3097 51.3987 62.6988 51.3747 62.0057H53.634C53.654 62.3382 53.7642 62.6287 53.9645 62.877C54.1648 63.1214 54.4311 63.3117 54.7636 63.4479C55.0961 63.5841 55.4687 63.6522 55.8813 63.6522C56.3219 63.6522 56.7125 63.576 57.053 63.4238C57.3935 63.2676 57.6599 63.0513 57.8522 62.7749C58.0445 62.4985 58.1386 62.18 58.1346 61.8195C58.1386 61.4469 58.0425 61.1184 57.8462 60.834C57.6499 60.5496 57.3655 60.3273 56.9929 60.167C56.6244 60.0068 56.1797 59.9267 55.659 59.9267H54.5714V58.2081H55.659C56.0876 58.2081 56.4621 58.134 56.7826 57.9858C57.1071 57.8376 57.3615 57.6293 57.5457 57.3609C57.73 57.0885 57.8201 56.774 57.8161 56.4175C57.8201 56.069 57.742 55.7666 57.5818 55.5102C57.4256 55.2498 57.2032 55.0475 56.9148 54.9033C56.6304 54.7591 56.2959 54.687 55.9113 54.687C55.5348 54.687 55.1863 54.7551 54.8658 54.8913C54.5453 55.0275 54.2869 55.2218 54.0906 55.4741C53.8944 55.7225 53.7902 56.0189 53.7782 56.3634H51.633C51.6491 55.6744 51.8473 55.0695 52.2279 54.5488C52.6125 54.024 53.1252 53.6154 53.7662 53.323C54.4071 53.0265 55.1262 52.8783 55.9233 52.8783C56.7446 52.8783 57.4576 53.0325 58.0625 53.341C58.6714 53.6454 59.1421 54.056 59.4746 54.5728C59.8071 55.0896 59.9733 55.6604 59.9733 56.2853C59.9773 56.9783 59.773 57.5592 59.3604 58.0279C58.9518 58.4966 58.415 58.803 57.75 58.9472V59.0434C58.6153 59.1636 59.2783 59.484 59.739 60.0048C60.2036 60.5216 60.434 61.1645 60.43 61.9336C60.43 62.6226 60.2337 63.2396 59.8411 63.7844C59.4525 64.3251 58.9157 64.7498 58.2307 65.0582C57.5497 65.3667 56.7686 65.5209 55.8873 65.5209ZM67.0412 65.587C66.0518 65.587 65.2025 65.3366 64.4935 64.8359C63.7884 64.3312 63.2456 63.6041 62.8651 62.6547C62.4885 61.7013 62.3002 60.5536 62.3002 59.2116C62.3042 57.8696 62.4945 56.728 62.8711 55.7866C63.2516 54.8412 63.7944 54.1201 64.4995 53.6234C65.2085 53.1267 66.0558 52.8783 67.0412 52.8783C68.0267 52.8783 68.8739 53.1267 69.5829 53.6234C70.292 54.1201 70.8348 54.8412 71.2113 55.7866C71.5919 56.732 71.7822 57.8737 71.7822 59.2116C71.7822 60.5576 71.5919 61.7073 71.2113 62.6607C70.8348 63.6101 70.292 64.3352 69.5829 64.8359C68.8779 65.3366 68.0307 65.587 67.0412 65.587ZM67.0412 63.7062C67.8103 63.7062 68.4172 63.3277 68.8619 62.5706C69.3105 61.8094 69.5349 60.6898 69.5349 59.2116C69.5349 58.2342 69.4327 57.413 69.2284 56.748C69.0241 56.083 68.7357 55.5823 68.3632 55.2458C67.9906 54.9053 67.55 54.735 67.0412 54.735C66.2761 54.735 65.6712 55.1156 65.2265 55.8767C64.7819 56.6338 64.5576 57.7455 64.5535 59.2116C64.5495 60.1931 64.6477 61.0183 64.848 61.6873C65.0523 62.3563 65.3407 62.861 65.7133 63.2015C66.0858 63.538 66.5285 63.7062 67.0412 63.7062Z" fill="#0B150F"/>
<path d="M146.648 57.3527L151.583 64.403H141.713L146.648 57.3527Z" fill="#3FA21B"/>
<path d="M156.388 63.4056V62.6906L159.543 57.6992H160.062V58.8069H159.711L157.328 62.5784V62.6345H161.576V63.4056H156.388ZM159.767 64.8778V63.1883V62.8553V57.6992H160.594V64.8778H159.767ZM165.133 64.976C164.721 64.976 164.351 64.8942 164.022 64.7306C163.692 64.567 163.428 64.3427 163.229 64.0576C163.031 63.7725 162.922 63.4477 162.903 63.0832H163.745C163.777 63.408 163.925 63.6767 164.186 63.8894C164.45 64.0997 164.766 64.2048 165.133 64.2048C165.427 64.2048 165.689 64.1359 165.918 63.998C166.149 63.8601 166.33 63.6709 166.461 63.4302C166.594 63.1872 166.661 62.9126 166.661 62.6065C166.661 62.2933 166.592 62.0141 166.454 61.7687C166.319 61.521 166.132 61.3259 165.893 61.1834C165.655 61.0408 165.383 60.9684 165.077 60.9661C164.857 60.9637 164.631 60.9976 164.4 61.0677C164.169 61.1355 163.978 61.2231 163.829 61.3306L163.016 61.2324L163.45 57.6992H167.18V58.4704H164.179L163.927 60.5875H163.969C164.116 60.4707 164.301 60.3737 164.523 60.2966C164.745 60.2195 164.976 60.1809 165.217 60.1809C165.656 60.1809 166.048 60.286 166.391 60.4964C166.737 60.7043 167.008 60.9894 167.204 61.3516C167.403 61.7138 167.502 62.1274 167.502 62.5924C167.502 63.0505 167.399 63.4594 167.194 63.8192C166.99 64.1768 166.71 64.4595 166.352 64.6675C165.995 64.8731 165.588 64.976 165.133 64.976ZM172.554 63.5318V63.1533C172.554 62.8916 172.608 62.652 172.715 62.4347C172.825 62.2151 172.984 62.0398 173.192 61.9089C173.402 61.7757 173.657 61.7091 173.956 61.7091C174.26 61.7091 174.515 61.7757 174.72 61.9089C174.926 62.0398 175.081 62.2151 175.186 62.4347C175.292 62.652 175.344 62.8916 175.344 63.1533V63.5318C175.344 63.7935 175.29 64.0342 175.183 64.2539C175.078 64.4712 174.921 64.6465 174.713 64.7797C174.508 64.9105 174.255 64.976 173.956 64.976C173.652 64.976 173.396 64.9105 173.188 64.7797C172.98 64.6465 172.823 64.4712 172.715 64.2539C172.608 64.0342 172.554 63.7935 172.554 63.5318ZM173.269 63.1533V63.5318C173.269 63.7491 173.32 63.9443 173.423 64.1172C173.526 64.2878 173.704 64.3731 173.956 64.3731C174.201 64.3731 174.374 64.2878 174.475 64.1172C174.578 63.9443 174.629 63.7491 174.629 63.5318V63.1533C174.629 62.9359 174.58 62.742 174.482 62.5714C174.384 62.3985 174.208 62.312 173.956 62.312C173.711 62.312 173.534 62.3985 173.427 62.5714C173.322 62.742 173.269 62.9359 173.269 63.1533ZM168.979 59.4238V59.0452C168.979 58.7835 169.032 58.544 169.14 58.3267C169.25 58.107 169.409 57.9318 169.617 57.8009C169.827 57.6677 170.082 57.6011 170.381 57.6011C170.685 57.6011 170.939 57.6677 171.145 57.8009C171.351 57.9318 171.506 58.107 171.611 58.3267C171.716 58.544 171.769 58.7835 171.769 59.0452V59.4238C171.769 59.6855 171.715 59.9262 171.608 60.1458C171.502 60.3632 171.346 60.5384 171.138 60.6716C170.932 60.8025 170.68 60.8679 170.381 60.8679C170.077 60.8679 169.821 60.8025 169.613 60.6716C169.405 60.5384 169.247 60.3632 169.14 60.1458C169.032 59.9262 168.979 59.6855 168.979 59.4238ZM169.694 59.0452V59.4238C169.694 59.6411 169.745 59.8362 169.848 60.0091C169.951 60.1797 170.128 60.265 170.381 60.265C170.626 60.265 170.799 60.1797 170.9 60.0091C171.002 59.8362 171.054 59.6411 171.054 59.4238V59.0452C171.054 58.8279 171.005 58.634 170.907 58.4634C170.808 58.2904 170.633 58.204 170.381 58.204C170.135 58.204 169.959 58.2904 169.852 58.4634C169.746 58.634 169.694 58.8279 169.694 59.0452ZM169.245 64.8778L174.18 57.6992H174.98L170.044 64.8778H169.245Z" fill="#3FA21B"/>
<circle cx="26.0864" cy="22.5612" r="12.6907" fill="#FEEFD9"/>
<g clip-path="url(#clip0_247_1789)">
<g clip-path="url(#clip1_247_1789)">
<path d="M33.1368 23.9712H31.7267V19.2037L26.137 24.2095L20.4461 19.1882V27.4964H27.4965V28.9065H19.741C19.3517 28.9065 19.036 28.5909 19.036 28.2015V16.9209C19.036 16.5315 19.3517 16.2158 19.741 16.2158H32.4317C32.8211 16.2158 33.1368 16.5315 33.1368 16.9209V23.9712ZM20.8067 17.6259L26.13 22.3229L31.3749 17.6259H20.8067ZM31.0217 29.6115L28.529 27.1189L29.5261 26.1218L31.0217 27.6174L33.5143 25.1247L34.5114 26.1218L31.0217 29.6115Z" fill="#2D2D2D"/>
</g>
</g>
<rect x="1" y="1" width="191.885" height="81.1944" rx="3.23023" stroke="#96EF76" stroke-width="2"/>
<defs>
<clipPath id="clip0_247_1789">
<rect width="16.9209" height="16.9209" fill="white" transform="translate(17.626 14.1007)"/>
</clipPath>
<clipPath id="clip1_247_1789">
<rect width="16.9209" height="16.9209" fill="white" transform="translate(17.626 14.1007)"/>
</clipPath>
</defs>
</svg>
