<svg width="47" height="47" viewBox="0 0 47 47" fill="none" xmlns="http://www.w3.org/2000/svg">
<rect width="47" height="47" rx="10" fill="#96EF76" fill-opacity="0.21"/>
<path d="M18.941 29C18.6439 27.7274 17.3041 26.6857 16.754 25.9992C15.6565 24.6297 15 22.8915 15 21C15 16.5817 18.5817 13 23 13C27.4183 13 31 16.5817 31 21C31 22.8925 30.3428 24.6315 29.2443 26.0014C28.6944 26.687 27.3558 27.7276 27.059 29H18.941ZM27 31V32C27 33.1046 26.1046 34 25 34H21C19.8954 34 19 33.1046 19 32V31H27ZM24 21.0048V17L19.5 23.0048H22V27.0048L26.5 21.0048H24Z" fill="black"/>
</svg>
