<svg width="137" height="27" viewBox="0 0 137 27" fill="none" xmlns="http://www.w3.org/2000/svg">
<g id="logo-87" clip-path="url(#clip0_232_2877)">
<path id="Vector" fill-rule="evenodd" clip-rule="evenodd" d="M17.3323 7.88758C16.217 7.14589 14.9057 6.75 13.5644 6.75V0C16.2471 0 18.8696 0.791762 21.1003 2.27516C23.331 3.75856 25.0695 5.86697 26.0962 8.33375C27.1228 10.8005 27.3915 13.515 26.8681 16.1337C26.3447 18.7524 25.0528 21.1579 23.1558 23.0459C21.2588 24.934 18.8418 26.2197 16.2106 26.7406C13.5794 27.2615 10.852 26.9941 8.37348 25.9724C5.89493 24.9506 3.77647 23.2203 2.28601 21.0002C0.795536 18.7801 0 16.17 0 13.5H6.78218C6.78218 14.835 7.17995 16.1401 7.92518 17.2501C8.6704 18.3601 9.72965 19.2253 10.969 19.7362C12.2082 20.2471 13.5719 20.3807 14.8875 20.1203C16.2031 19.8598 17.4115 19.217 18.3601 18.273C19.3086 17.3289 19.9545 16.1262 20.2162 14.8169C20.4779 13.5075 20.3436 12.1503 19.8303 10.9169C19.3169 9.68348 18.4477 8.62927 17.3323 7.88758Z" fill="black"/>
<path id="Vector_2" fill-rule="evenodd" clip-rule="evenodd" d="M6.78217 3.56733e-06C6.78217 0.886426 6.60675 1.76417 6.26591 2.58312C5.92508 3.40206 5.42551 4.14618 4.79572 4.77297C4.16594 5.39977 3.41828 5.89697 2.59543 6.23619C1.77257 6.57541 0.890645 6.75 2.96456e-07 6.75L0 13.5C1.78129 13.5 3.54515 13.1508 5.19086 12.4724C6.83657 11.7939 8.3319 10.7995 9.59142 9.54592C10.851 8.29238 11.8502 6.80414 12.5318 5.16623C13.2135 3.52833 13.5644 1.77284 13.5644 0L6.78217 3.56733e-06Z" fill="black"/>
<path id="Vector_3" d="M85.197 9.75549H81.9062V20.1588H85.197V9.75549Z" fill="black"/>
<path id="Vector_4" d="M82.2727 7.80743C82.6165 8.14993 83.0465 8.32117 83.5627 8.32117C84.0788 8.32117 84.502 8.14993 84.8316 7.80743C85.1619 7.45069 85.3267 7.02254 85.3267 6.52307C85.3267 6.00935 85.1619 5.58121 84.8316 5.23872C84.502 4.89622 84.0788 4.72498 83.5627 4.72498C83.0465 4.72498 82.6165 4.89622 82.2727 5.23872C81.9424 5.58121 81.7776 6.00935 81.7776 6.52307C81.7776 7.02254 81.9424 7.45069 82.2727 7.80743Z" fill="black"/>
<path id="Vector_5" d="M34.6951 20.1588V5.04614H38.0718V17.2048H44.8039V20.1588H34.6951Z" fill="black"/>
<path id="Vector_6" fill-rule="evenodd" clip-rule="evenodd" d="M50.8849 20.3941C49.8095 20.3941 48.8345 20.1587 47.9598 19.6878C47.0995 19.2026 46.4184 18.5461 45.9166 17.7184C45.4148 16.8907 45.1638 15.9631 45.1638 14.9356C45.1638 13.9081 45.4148 12.9877 45.9166 12.1743C46.4184 11.3608 47.0995 10.7186 47.9598 10.2478C48.8202 9.76249 49.7952 9.5199 50.8849 9.5199C51.9747 9.5199 52.9497 9.75541 53.81 10.2263C54.6703 10.6972 55.3515 11.3466 55.8533 12.1743C56.3552 12.9877 56.6061 13.9081 56.6061 14.9356C56.6061 15.9631 56.3552 16.8907 55.8533 17.7184C55.3515 18.5461 54.6703 19.2026 53.81 19.6878C52.9497 20.1587 51.9747 20.3941 50.8849 20.3941ZM50.8849 17.4187C51.3581 17.4187 51.7739 17.3188 52.1324 17.119C52.4909 16.905 52.7633 16.6125 52.9497 16.2414C53.1504 15.8561 53.2508 15.4208 53.2508 14.9356C53.2508 14.4504 53.1504 14.0294 52.9497 13.6727C52.7489 13.3017 52.4694 13.0163 52.1109 12.8165C51.7667 12.6024 51.3581 12.4954 50.8849 12.4954C50.4261 12.4954 50.0175 12.6024 49.659 12.8165C49.3005 13.0163 49.0209 13.3017 48.8202 13.6727C48.6194 14.0437 48.5191 14.4718 48.5191 14.957C48.5191 15.428 48.6194 15.8561 48.8202 16.2414C49.0209 16.6125 49.3005 16.905 49.659 17.119C50.0175 17.3188 50.4261 17.4187 50.8849 17.4187Z" fill="black"/>
<path id="Vector_7" fill-rule="evenodd" clip-rule="evenodd" d="M59.2122 24.2259C60.0869 24.6255 61.0978 24.8253 62.2449 24.8253C63.3633 24.8253 64.3599 24.6041 65.2345 24.1617C66.1092 23.7193 66.7974 23.1057 67.2992 22.3208C67.8011 21.5359 68.0523 20.6083 68.0523 19.538V9.75549H64.8258V10.4545C64.5858 10.2534 64.3133 10.0847 64.0085 9.94814C63.4493 9.67699 62.8112 9.54138 62.0943 9.54138C61.1336 9.54138 60.2804 9.76973 59.5349 10.2264C58.7892 10.6688 58.2014 11.2824 57.7712 12.0673C57.341 12.8379 57.126 13.7084 57.126 14.6789C57.126 15.635 57.341 16.5055 57.7712 17.2904C58.2014 18.0753 58.7892 18.6961 59.5349 19.1527C60.2804 19.6093 61.1336 19.8377 62.0943 19.8377C62.7969 19.8377 63.435 19.7022 64.0085 19.431C64.2863 19.2997 64.5373 19.1449 64.7613 18.9666V19.6237C64.7613 20.3514 64.5247 20.9151 64.0515 21.3147C63.5927 21.7143 62.9546 21.9141 62.1373 21.9141C61.4778 21.9141 60.9114 21.7999 60.4382 21.5716C59.9794 21.3433 59.5635 21.0079 59.1907 20.5655L57.169 22.5777C57.6708 23.2912 58.3519 23.8407 59.2122 24.2259ZM63.901 16.6268C63.5712 16.8266 63.1769 16.9265 62.718 16.9265C62.2592 16.9265 61.8577 16.8266 61.5136 16.6268C61.1838 16.427 60.9257 16.1558 60.7393 15.8133C60.5529 15.4566 60.4597 15.0784 60.4597 14.6789C60.4597 14.2507 60.5529 13.8654 60.7393 13.5229C60.9257 13.1804 61.1909 12.9093 61.5351 12.7095C61.8792 12.5097 62.2735 12.4098 62.718 12.4098C63.1769 12.4098 63.5712 12.5097 63.901 12.7095C64.2451 12.9093 64.5032 13.1804 64.6753 13.5229C64.8617 13.8654 64.9549 14.2507 64.9549 14.6789C64.9549 15.107 64.8617 15.4922 64.6753 15.8347C64.5032 16.163 64.2451 16.427 63.901 16.6268Z" fill="black"/>
<path id="Vector_8" fill-rule="evenodd" clip-rule="evenodd" d="M74.9776 20.3941C73.9019 20.3941 72.9266 20.1587 72.0524 19.6878C71.1917 19.2026 70.5108 18.5461 70.0089 17.7184C69.507 16.8907 69.2561 15.9631 69.2561 14.9356C69.2561 13.9081 69.507 12.9877 70.0089 12.1743C70.5108 11.3608 71.1917 10.7186 72.0524 10.2478C72.9124 9.76249 73.8877 9.5199 74.9776 9.5199C76.0668 9.5199 77.042 9.75541 77.902 10.2263C78.7627 10.6972 79.4436 11.3466 79.9455 12.1743C80.4474 12.9877 80.6983 13.9081 80.6983 14.9356C80.6983 15.9631 80.4474 16.8907 79.9455 17.7184C79.4436 18.5461 78.7627 19.2026 77.902 19.6878C77.042 20.1587 76.0668 20.3941 74.9776 20.3941ZM74.9776 17.4187C75.4503 17.4187 75.866 17.3188 76.2248 17.119C76.5829 16.905 76.8555 16.6125 77.042 16.2414C77.2428 15.8561 77.3432 15.4208 77.3432 14.9356C77.3432 14.4504 77.2428 14.0294 77.042 13.6727C76.8413 13.3017 76.5619 13.0163 76.2031 12.8165C75.8592 12.6024 75.4503 12.4954 74.9776 12.4954C74.5184 12.4954 74.1094 12.6024 73.7513 12.8165C73.3926 13.0163 73.1131 13.3017 72.9124 13.6727C72.7116 14.0437 72.6112 14.4718 72.6112 14.957C72.6112 15.428 72.7116 15.8561 72.9124 16.2414C73.1131 16.6125 73.3926 16.905 73.7513 17.119C74.1094 17.3188 74.5184 17.4187 74.9776 17.4187Z" fill="black"/>
<path id="Vector_9" fill-rule="evenodd" clip-rule="evenodd" d="M93.1064 20.3728C92.4044 20.3728 91.7588 20.2373 91.1707 19.9661C90.8615 19.8235 90.582 19.6531 90.3325 19.455V24.547H87.0845V9.75549H90.3752V10.4735C90.6139 10.2792 90.8791 10.1111 91.1707 9.96953C91.7588 9.68408 92.4044 9.54138 93.1064 9.54138C94.0959 9.54138 94.9708 9.77689 95.7304 10.2478C96.5049 10.7187 97.1072 11.3609 97.5372 12.1744C97.9821 12.9878 98.2039 13.9154 98.2039 14.9571C98.2039 15.9989 97.9821 16.9265 97.5372 17.7399C97.1072 18.5534 96.5049 19.1955 95.7304 19.6665C94.9708 20.1374 94.0959 20.3728 93.1064 20.3728ZM92.5048 17.4188C92.9775 17.4188 93.3865 17.3118 93.7303 17.0977C94.0891 16.8837 94.3685 16.5911 94.5693 16.2201C94.77 15.8491 94.8704 15.4281 94.8704 14.9571C94.8704 14.4719 94.77 14.0438 94.5693 13.6728C94.3685 13.3017 94.0891 13.0163 93.7303 12.8165C93.3865 12.6024 92.985 12.4955 92.5258 12.4955C92.0673 12.4955 91.6584 12.6024 91.3003 12.8165C90.9557 13.0163 90.6838 13.3017 90.483 13.6728C90.2823 14.0438 90.1819 14.4719 90.1819 14.9571C90.1819 15.4281 90.2748 15.8491 90.4613 16.2201C90.6621 16.5911 90.9415 16.8837 91.3003 17.0977C91.6584 17.3118 92.0599 17.4188 92.5048 17.4188Z" fill="black"/>
<path id="Vector_10" d="M101.425 20.1801C102.027 20.3371 102.636 20.4155 103.253 20.4155C104.558 20.4155 105.59 20.1159 106.35 19.5165C107.124 18.9172 107.511 18.1109 107.511 17.0976C107.511 16.4412 107.39 15.9131 107.146 15.5136C106.902 15.0998 106.587 14.7715 106.2 14.5289C105.812 14.2863 105.403 14.0936 104.973 13.9509C104.543 13.8082 104.134 13.6869 103.748 13.587C103.361 13.4871 103.045 13.373 102.801 13.2445C102.558 13.1161 102.435 12.9448 102.435 12.7308C102.435 12.531 102.529 12.3811 102.715 12.2812C102.901 12.1671 103.181 12.1101 103.554 12.1101C103.941 12.1101 104.335 12.1885 104.737 12.3455C105.152 12.5024 105.525 12.7737 105.855 13.1589L107.726 11.2752C107.253 10.6758 106.637 10.2263 105.877 9.92664C105.131 9.61269 104.314 9.45569 103.425 9.45569C102.579 9.45569 101.841 9.59838 101.21 9.88377C100.578 10.1692 100.091 10.5617 99.747 11.0611C99.4031 11.5463 99.2308 12.1243 99.2308 12.795C99.2308 13.4229 99.3529 13.9438 99.5964 14.3577C99.8399 14.7572 100.156 15.0712 100.543 15.2995C100.93 15.5279 101.339 15.7063 101.769 15.8346C102.199 15.9631 102.608 16.0844 102.995 16.1986C103.382 16.2985 103.698 16.4198 103.941 16.5625C104.199 16.6909 104.328 16.8836 104.328 17.1404C104.328 17.3402 104.22 17.4972 104.005 17.6114C103.805 17.7255 103.511 17.7826 103.124 17.7826C102.564 17.7826 102.048 17.6827 101.575 17.4829C101.102 17.2689 100.693 16.9763 100.349 16.6053L98.478 18.489C98.8368 18.8743 99.2668 19.2169 99.7687 19.5165C100.285 19.8019 100.837 20.0231 101.425 20.1801Z" fill="black"/>
<path id="Vector_11" d="M113.512 20.3942C112.552 20.3942 111.698 20.2016 110.953 19.8163C110.221 19.4167 109.648 18.8744 109.232 18.1894C108.816 17.4902 108.608 16.6911 108.608 15.7919V9.75549H111.899V15.7492C111.899 16.1059 111.956 16.4127 112.071 16.6696C112.2 16.9265 112.387 17.1263 112.63 17.269C112.874 17.4117 113.168 17.483 113.512 17.483C114 17.483 114.387 17.3332 114.674 17.0335C114.961 16.7195 115.104 16.2915 115.104 15.7492V9.75549H118.394V15.7706C118.394 16.6839 118.187 17.4902 117.77 18.1894C117.355 18.8744 116.782 19.4167 116.05 19.8163C115.319 20.2016 114.473 20.3942 113.512 20.3942Z" fill="black"/>
<path id="Vector_12" d="M123.321 9.75549H120.03V20.1588H123.321V14.0795C123.321 13.7227 123.393 13.423 123.536 13.1804C123.694 12.9378 123.902 12.7523 124.16 12.6239C124.418 12.4811 124.712 12.4098 125.042 12.4098C125.515 12.4098 125.909 12.5596 126.224 12.8593C126.555 13.1447 126.72 13.5515 126.72 14.0795V20.1588H130.01V14.0795C130.01 13.7227 130.082 13.423 130.225 13.1804C130.383 12.9378 130.591 12.7523 130.849 12.6239C131.107 12.4811 131.401 12.4098 131.731 12.4098C132.204 12.4098 132.598 12.5596 132.914 12.8593C133.243 13.1447 133.408 13.5515 133.408 14.0795V20.1588H136.7V13.7156C136.7 12.8451 136.513 12.103 136.14 11.4894C135.781 10.8614 135.287 10.3834 134.656 10.0552C134.04 9.71263 133.329 9.54138 132.526 9.54138C131.709 9.54138 130.971 9.71978 130.311 10.0766C129.883 10.3039 129.508 10.5972 129.188 10.9566C128.888 10.5807 128.525 10.2731 128.096 10.0337C127.523 9.70554 126.87 9.54138 126.139 9.54138C125.364 9.54138 124.669 9.70554 124.053 10.0337C123.784 10.1703 123.541 10.3338 123.321 10.5244V9.75549Z" fill="black"/>
</g>
<defs>
<clipPath id="clip0_232_2877">
<rect width="137" height="27" fill="white"/>
</clipPath>
</defs>
</svg>
