<svg width="137" height="27" viewBox="0 0 137 27" fill="none" xmlns="http://www.w3.org/2000/svg">
<g clip-path="url(#clip0_232_2846)">
<path fill-rule="evenodd" clip-rule="evenodd" d="M17.3323 7.88758C16.217 7.14589 14.9057 6.75 13.5644 6.75V0C16.2471 0 18.8696 0.791762 21.1003 2.27516C23.331 3.75856 25.0695 5.86697 26.0962 8.33375C27.1228 10.8005 27.3915 13.515 26.8681 16.1337C26.3447 18.7524 25.0528 21.1579 23.1558 23.0459C21.2588 24.934 18.8418 26.2197 16.2106 26.7406C13.5794 27.2615 10.852 26.9941 8.37348 25.9724C5.89493 24.9506 3.77647 23.2203 2.28601 21.0002C0.795536 18.7801 0 16.17 0 13.5H6.78218C6.78218 14.835 7.17995 16.1401 7.92518 17.2501C8.6704 18.3601 9.72965 19.2253 10.969 19.7362C12.2082 20.2471 13.5719 20.3807 14.8875 20.1203C16.2031 19.8598 17.4115 19.217 18.3601 18.273C19.3086 17.3289 19.9545 16.1262 20.2162 14.8169C20.4779 13.5075 20.3436 12.1503 19.8303 10.9169C19.3169 9.68348 18.4477 8.62927 17.3323 7.88758Z" fill="white"/>
<path fill-rule="evenodd" clip-rule="evenodd" d="M6.78217 3.56733e-06C6.78217 0.886426 6.60675 1.76417 6.26591 2.58312C5.92508 3.40206 5.42551 4.14618 4.79572 4.77297C4.16594 5.39977 3.41828 5.89697 2.59543 6.23619C1.77257 6.57541 0.890645 6.75 2.96456e-07 6.75L0 13.5C1.78129 13.5 3.54515 13.1508 5.19086 12.4724C6.83657 11.7939 8.3319 10.7995 9.59142 9.54592C10.851 8.29238 11.8502 6.80414 12.5318 5.16623C13.2135 3.52833 13.5644 1.77284 13.5644 0L6.78217 3.56733e-06Z" fill="white"/>
<path d="M85.197 9.75543H81.9062V20.1587H85.197V9.75543Z" fill="white"/>
<path d="M82.2727 7.80743C82.6165 8.14993 83.0465 8.32117 83.5627 8.32117C84.0788 8.32117 84.502 8.14993 84.8316 7.80743C85.1619 7.45069 85.3267 7.02254 85.3267 6.52307C85.3267 6.00935 85.1619 5.58121 84.8316 5.23872C84.502 4.89622 84.0788 4.72498 83.5627 4.72498C83.0465 4.72498 82.6165 4.89622 82.2727 5.23872C81.9424 5.58121 81.7776 6.00935 81.7776 6.52307C81.7776 7.02254 81.9424 7.45069 82.2727 7.80743Z" fill="white"/>
<path d="M34.6951 20.1587V5.04608H38.0718V17.2047H44.8039V20.1587H34.6951Z" fill="white"/>
<path fill-rule="evenodd" clip-rule="evenodd" d="M50.8849 20.3942C49.8095 20.3942 48.8345 20.1588 47.9598 19.6878C47.0995 19.2026 46.4184 18.5462 45.9166 17.7184C45.4148 16.8908 45.1638 15.9632 45.1638 14.9357C45.1638 13.9082 45.4148 12.9878 45.9166 12.1743C46.4184 11.3609 47.0995 10.7187 47.9598 10.2478C48.8202 9.76255 49.7952 9.51996 50.8849 9.51996C51.9747 9.51996 52.9497 9.75547 53.81 10.2263C54.6703 10.6973 55.3515 11.3466 55.8533 12.1743C56.3552 12.9878 56.6061 13.9082 56.6061 14.9357C56.6061 15.9632 56.3552 16.8908 55.8533 17.7184C55.3515 18.5462 54.6703 19.2026 53.81 19.6878C52.9497 20.1588 51.9747 20.3942 50.8849 20.3942ZM50.8849 17.4188C51.3581 17.4188 51.7739 17.3189 52.1324 17.1191C52.4909 16.9051 52.7633 16.6125 52.9497 16.2415C53.1504 15.8562 53.2508 15.4209 53.2508 14.9357C53.2508 14.4505 53.1504 14.0295 52.9497 13.6728C52.7489 13.3017 52.4694 13.0163 52.1109 12.8165C51.7667 12.6024 51.3581 12.4954 50.8849 12.4954C50.4261 12.4954 50.0175 12.6024 49.659 12.8165C49.3005 13.0163 49.0209 13.3017 48.8202 13.6728C48.6194 14.0438 48.5191 14.4719 48.5191 14.9571C48.5191 15.428 48.6194 15.8562 48.8202 16.2415C49.0209 16.6125 49.3005 16.9051 49.659 17.1191C50.0175 17.3189 50.4261 17.4188 50.8849 17.4188Z" fill="white"/>
<path fill-rule="evenodd" clip-rule="evenodd" d="M59.2122 24.2259C60.0869 24.6254 61.0978 24.8252 62.2449 24.8252C63.3633 24.8252 64.3599 24.604 65.2345 24.1616C66.1092 23.7192 66.7974 23.1056 67.2992 22.3208C67.8011 21.5359 68.0523 20.6083 68.0523 19.5379V9.75543H64.8258V10.4544C64.5858 10.2534 64.3133 10.0846 64.0085 9.94808C63.4493 9.67693 62.8112 9.54132 62.0943 9.54132C61.1336 9.54132 60.2804 9.76967 59.5349 10.2263C58.7892 10.6687 58.2014 11.2823 57.7712 12.0672C57.341 12.8379 57.126 13.7084 57.126 14.6788C57.126 15.635 57.341 16.5054 57.7712 17.2903C58.2014 18.0752 58.7892 18.696 59.5349 19.1526C60.2804 19.6093 61.1336 19.8376 62.0943 19.8376C62.7969 19.8376 63.435 19.7021 64.0085 19.4309C64.2863 19.2996 64.5373 19.1448 64.7613 18.9665V19.6236C64.7613 20.3514 64.5247 20.9151 64.0515 21.3147C63.5927 21.7143 62.9546 21.914 62.1373 21.914C61.4778 21.914 60.9114 21.7999 60.4382 21.5715C59.9794 21.3432 59.5635 21.0078 59.1907 20.5654L57.169 22.5776C57.6708 23.2911 58.3519 23.8406 59.2122 24.2259ZM63.901 16.6267C63.5712 16.8265 63.1769 16.9264 62.718 16.9264C62.2592 16.9264 61.8577 16.8265 61.5136 16.6267C61.1838 16.4269 60.9257 16.1558 60.7393 15.8133C60.5529 15.4565 60.4597 15.0783 60.4597 14.6788C60.4597 14.2507 60.5529 13.8654 60.7393 13.5229C60.9257 13.1804 61.1909 12.9092 61.5351 12.7094C61.8792 12.5096 62.2735 12.4097 62.718 12.4097C63.1769 12.4097 63.5712 12.5096 63.901 12.7094C64.2451 12.9092 64.5032 13.1804 64.6753 13.5229C64.8617 13.8654 64.9549 14.2507 64.9549 14.6788C64.9549 15.1069 64.8617 15.4922 64.6753 15.8347C64.5032 16.1629 64.2451 16.4269 63.901 16.6267Z" fill="white"/>
<path fill-rule="evenodd" clip-rule="evenodd" d="M74.9776 20.3942C73.9019 20.3942 72.9266 20.1588 72.0524 19.6878C71.1917 19.2026 70.5108 18.5462 70.0089 17.7184C69.507 16.8908 69.2561 15.9632 69.2561 14.9357C69.2561 13.9082 69.507 12.9878 70.0089 12.1743C70.5108 11.3609 71.1917 10.7187 72.0524 10.2478C72.9124 9.76255 73.8877 9.51996 74.9776 9.51996C76.0668 9.51996 77.042 9.75547 77.902 10.2263C78.7627 10.6973 79.4436 11.3466 79.9455 12.1743C80.4474 12.9878 80.6983 13.9082 80.6983 14.9357C80.6983 15.9632 80.4474 16.8908 79.9455 17.7184C79.4436 18.5462 78.7627 19.2026 77.902 19.6878C77.042 20.1588 76.0668 20.3942 74.9776 20.3942ZM74.9776 17.4188C75.4503 17.4188 75.866 17.3189 76.2248 17.1191C76.5829 16.9051 76.8555 16.6125 77.042 16.2415C77.2428 15.8562 77.3432 15.4209 77.3432 14.9357C77.3432 14.4505 77.2428 14.0295 77.042 13.6728C76.8413 13.3017 76.5619 13.0163 76.2031 12.8165C75.8592 12.6024 75.4503 12.4954 74.9776 12.4954C74.5184 12.4954 74.1094 12.6024 73.7513 12.8165C73.3926 13.0163 73.1131 13.3017 72.9124 13.6728C72.7116 14.0438 72.6112 14.4719 72.6112 14.9571C72.6112 15.428 72.7116 15.8562 72.9124 16.2415C73.1131 16.6125 73.3926 16.9051 73.7513 17.1191C74.1094 17.3189 74.5184 17.4188 74.9776 17.4188Z" fill="white"/>
<path fill-rule="evenodd" clip-rule="evenodd" d="M93.1064 20.3728C92.4044 20.3728 91.7588 20.2372 91.1707 19.9661C90.8615 19.8234 90.582 19.653 90.3325 19.455V24.547H87.0845V9.75543H90.3752V10.4734C90.6139 10.2791 90.8791 10.1111 91.1707 9.96947C91.7588 9.68402 92.4044 9.54132 93.1064 9.54132C94.0959 9.54132 94.9708 9.77683 95.7304 10.2478C96.5049 10.7187 97.1072 11.3609 97.5372 12.1743C97.9821 12.9877 98.2039 13.9153 98.2039 14.957C98.2039 15.9988 97.9821 16.9264 97.5372 17.7399C97.1072 18.5533 96.5049 19.1954 95.7304 19.6664C94.9708 20.1373 94.0959 20.3728 93.1064 20.3728ZM92.5048 17.4188C92.9775 17.4188 93.3865 17.3117 93.7303 17.0977C94.0891 16.8836 94.3685 16.591 94.5693 16.22C94.77 15.849 94.8704 15.428 94.8704 14.957C94.8704 14.4719 94.77 14.0438 94.5693 13.6727C94.3685 13.3017 94.0891 13.0163 93.7303 12.8165C93.3865 12.6024 92.985 12.4954 92.5258 12.4954C92.0673 12.4954 91.6584 12.6024 91.3003 12.8165C90.9557 13.0163 90.6838 13.3017 90.483 13.6727C90.2823 14.0438 90.1819 14.4719 90.1819 14.957C90.1819 15.428 90.2748 15.849 90.4613 16.22C90.6621 16.591 90.9415 16.8836 91.3003 17.0977C91.6584 17.3117 92.0599 17.4188 92.5048 17.4188Z" fill="white"/>
<path d="M101.425 20.1801C102.027 20.3372 102.636 20.4156 103.253 20.4156C104.558 20.4156 105.59 20.116 106.35 19.5166C107.124 18.9172 107.511 18.1109 107.511 17.0977C107.511 16.4413 107.39 15.9132 107.146 15.5137C106.902 15.0998 106.587 14.7716 106.2 14.529C105.812 14.2864 105.403 14.0937 104.973 13.951C104.543 13.8083 104.134 13.687 103.748 13.5871C103.361 13.4872 103.045 13.373 102.801 13.2446C102.558 13.1161 102.435 12.9449 102.435 12.7308C102.435 12.531 102.529 12.3812 102.715 12.2813C102.901 12.1672 103.181 12.1101 103.554 12.1101C103.941 12.1101 104.335 12.1886 104.737 12.3456C105.152 12.5025 105.525 12.7737 105.855 13.159L107.726 11.2753C107.253 10.6759 106.637 10.2263 105.877 9.9267C105.131 9.61275 104.314 9.45575 103.425 9.45575C102.579 9.45575 101.841 9.59844 101.21 9.88383C100.578 10.1693 100.091 10.5617 99.747 11.0612C99.4031 11.5464 99.2308 12.1244 99.2308 12.7951C99.2308 13.423 99.3529 13.9439 99.5964 14.3577C99.8399 14.7573 100.156 15.0713 100.543 15.2996C100.93 15.5279 101.339 15.7063 101.769 15.8347C102.199 15.9632 102.608 16.0845 102.995 16.1987C103.382 16.2986 103.698 16.4199 103.941 16.5626C104.199 16.691 104.328 16.8837 104.328 17.1405C104.328 17.3403 104.22 17.4972 104.005 17.6114C103.805 17.7256 103.511 17.7827 103.124 17.7827C102.564 17.7827 102.048 17.6828 101.575 17.483C101.102 17.2689 100.693 16.9764 100.349 16.6053L98.478 18.4891C98.8368 18.8744 99.2668 19.2169 99.7687 19.5166C100.285 19.8019 100.837 20.0231 101.425 20.1801Z" fill="white"/>
<path d="M113.512 20.3942C112.552 20.3942 111.698 20.2015 110.953 19.8162C110.221 19.4166 109.648 18.8743 109.232 18.1894C108.816 17.4901 108.608 16.691 108.608 15.7919V9.75543H111.899V15.7491C111.899 16.1058 111.956 16.4127 112.071 16.6695C112.2 16.9264 112.387 17.1262 112.63 17.2689C112.874 17.4116 113.168 17.483 113.512 17.483C114 17.483 114.387 17.3331 114.674 17.0334C114.961 16.7195 115.104 16.2914 115.104 15.7491V9.75543H118.394V15.7705C118.394 16.6838 118.187 17.4901 117.77 18.1894C117.355 18.8743 116.782 19.4166 116.05 19.8162C115.319 20.2015 114.473 20.3942 113.512 20.3942Z" fill="white"/>
<path d="M123.321 9.75543H120.03V20.1587H123.321V14.0794C123.321 13.7227 123.393 13.423 123.536 13.1804C123.694 12.9378 123.902 12.7522 124.16 12.6238C124.418 12.4811 124.712 12.4097 125.042 12.4097C125.515 12.4097 125.909 12.5596 126.224 12.8593C126.555 13.1447 126.72 13.5514 126.72 14.0794V20.1587H130.01V14.0794C130.01 13.7227 130.082 13.423 130.225 13.1804C130.383 12.9378 130.591 12.7522 130.849 12.6238C131.107 12.4811 131.401 12.4097 131.731 12.4097C132.204 12.4097 132.598 12.5596 132.914 12.8593C133.243 13.1447 133.408 13.5514 133.408 14.0794V20.1587H136.7V13.7155C136.7 12.845 136.513 12.1029 136.14 11.4893C135.781 10.8614 135.287 10.3833 134.656 10.0551C134.04 9.71257 133.329 9.54132 132.526 9.54132C131.709 9.54132 130.971 9.71972 130.311 10.0765C129.883 10.3038 129.508 10.5972 129.188 10.9565C128.888 10.5806 128.525 10.273 128.096 10.0337C127.523 9.70548 126.87 9.54132 126.139 9.54132C125.364 9.54132 124.669 9.70548 124.053 10.0337C123.784 10.1702 123.541 10.3338 123.321 10.5243V9.75543Z" fill="white"/>
</g>
<defs>
<clipPath id="clip0_232_2846">
<rect width="137" height="27" fill="white"/>
</clipPath>
</defs>
</svg>
